<svg width="184" height="184" viewBox="0 0 184 184" fill="none" xmlns="http://www.w3.org/2000/svg">
<path d="M92.7232 24.4303L92.7234 24.4301C101.561 15.5897 113.551 10.6237 126.052 10.6237C152.082 10.6237 173.185 31.7264 173.185 57.7593C173.185 70.2604 168.219 82.2477 159.381 91.0884L125.966 124.5L59.3085 57.8422L92.7232 24.4303Z" fill="#62C4C3" stroke="black" stroke-width="2.77246"/>
<path d="M10.1295 126.543C10.1295 114.042 15.0955 102.055 23.9361 93.2145L57.348 59.8026L124.006 126.461L90.5941 159.872C81.7535 168.713 69.7662 173.679 57.2651 173.679C31.2323 173.679 10.1295 152.576 10.1295 126.543Z" fill="#42A5B2" stroke="black" stroke-width="2.77246"/>
<path d="M92.6979 42.7089L88.6552 38.6662L97.8071 29.5142C100.675 26.6465 103.931 24.242 107.477 22.3722L110.144 27.4328C107.105 29.0367 104.314 31.0953 101.85 33.5598L92.6979 42.7089Z" fill="#F2DAAE"/>
<path d="M118.052 24.465L116.726 18.9041C119.762 18.1807 122.899 17.8148 126.049 17.8148V23.533C123.345 23.533 120.651 23.8446 118.052 24.465Z" fill="#F2DAAE"/>
<path d="M59.3721 55.8203L55.3287 59.8636L66.7653 71.3002L70.8087 67.2568L59.3721 55.8203Z" fill="#3A4249"/>
<path d="M116.554 113.002L112.51 117.046L123.947 128.482L127.99 124.439L116.554 113.002Z" fill="#3A4249"/>
<path d="M94.5163 66.4195H88.7981V77.8559H94.5163V66.4195Z" fill="#EFBC2E"/>
<path d="M97.3754 63.5604H85.939V69.2786H97.3754V63.5604Z" fill="#EFBC2E"/>
<path d="M70.8001 76.8083L67.941 81.7602L77.8449 87.4784L80.704 82.5265L70.8001 76.8083Z" fill="#EFBC2E"/>
<path d="M69.758 72.8978L64.0396 82.8054L68.9921 85.6639L74.7106 75.7563L69.758 72.8978Z" fill="#EFBC2E"/>
<path d="M77.8489 96.8278L67.9438 102.545L70.8023 107.497L80.7074 101.78L77.8489 96.8278Z" fill="#EFBC2E"/>
<path d="M68.991 98.64L64.0385 101.499L69.757 111.406L74.7095 108.548L68.991 98.64Z" fill="#EFBC2E"/>
<path d="M94.5163 106.447H88.7981V117.883H94.5163V106.447Z" fill="#EFBC2E"/>
<path d="M97.3754 115.024H85.939V120.742H97.3754V115.024Z" fill="#EFBC2E"/>
<path d="M105.466 96.8218L102.606 101.774L112.51 107.492L115.369 102.54L105.466 96.8218Z" fill="#EFBC2E"/>
<path d="M114.328 98.6276L108.61 108.535L113.562 111.394L119.281 101.486L114.328 98.6276Z" fill="#EFBC2E"/>
<path d="M112.517 76.8142L102.612 82.5312L105.47 87.4838L115.375 81.7667L112.517 76.8142Z" fill="#EFBC2E"/>
<path d="M113.563 72.908L108.611 75.7665L114.329 85.6741L119.282 82.8155L113.563 72.908Z" fill="#EFBC2E"/>
<path d="M108.812 92.1514C108.812 101.624 101.129 109.306 91.6572 109.306C82.185 109.306 74.5026 101.624 74.5026 92.1514C74.5026 82.6792 82.185 74.9968 91.6572 74.9968C101.129 74.9968 108.812 82.6792 108.812 92.1514Z" fill="#AA494A"/>
<path d="M103.094 92.1514C103.094 98.4643 97.973 103.588 91.6572 103.588C85.3443 103.588 80.2208 98.4671 80.2208 92.1514C80.2208 85.8385 85.3415 80.715 91.6572 80.715C97.973 80.715 103.094 85.8385 103.094 92.1514Z" fill="#D36767"/>
</svg>
