<svg width="120" height="120" viewBox="0 0 120 120" fill="none" xmlns="http://www.w3.org/2000/svg">
<path d="M56.0153 52.0373C56.8303 50.0697 55.896 47.814 53.9284 46.999C51.9608 46.184 49.7051 47.1183 48.8901 49.0859C48.0751 51.0535 49.0095 53.3092 50.977 54.1242C52.9446 54.9392 55.2003 54.0049 56.0153 52.0373Z" fill="black"/>
<path d="M30.6631 54.4177C32.7928 54.4177 34.5193 52.6912 34.5193 50.5615C34.5193 48.4318 32.7928 46.7054 30.6631 46.7054C28.5334 46.7054 26.807 48.4318 26.807 50.5615C26.807 52.6912 28.5334 54.4177 30.6631 54.4177Z" fill="black"/>
<path d="M74.2423 54.4177C76.372 54.4177 78.0984 52.6912 78.0984 50.5615C78.0984 48.4318 76.372 46.7054 74.2423 46.7054C72.1126 46.7054 70.3861 48.4318 70.3861 50.5615C70.3861 52.6912 72.1126 54.4177 74.2423 54.4177Z" fill="black"/>
<path d="M56.0154 70.2489C56.8303 68.2813 55.896 66.0256 53.9284 65.2106C51.9608 64.3956 49.7051 65.3299 48.8901 67.2975C48.0751 69.2651 49.0095 71.5208 50.977 72.3358C52.9446 73.1508 55.2004 72.2165 56.0154 70.2489Z" fill="black"/>
<path d="M30.6631 72.6293C32.7928 72.6293 34.5193 70.9028 34.5193 68.7731C34.5193 66.6435 32.7928 64.917 30.6631 64.917C28.5334 64.917 26.807 66.6435 26.807 68.7731C26.807 70.9028 28.5334 72.6293 30.6631 72.6293Z" fill="black"/>
<path d="M93.8799 59.6312V59.9755L94.2015 60.0983C97.9157 61.5171 101.202 63.8686 103.744 66.9261C106.285 69.9837 107.997 73.6442 108.713 77.5552C109.429 81.4662 109.126 85.4957 107.833 89.2556C106.54 93.0154 104.301 96.379 101.33 99.0221C98.3601 101.665 94.7592 103.499 90.8746 104.346C86.9899 105.194 82.9525 105.027 79.1512 103.861C75.35 102.695 71.913 100.57 69.1715 97.6901C66.4299 94.8104 64.4762 91.2732 63.4985 87.4193L63.4028 87.0423H63.0138H16.605C15.1257 87.0406 13.7076 86.4522 12.6616 85.4063C11.6157 84.3603 11.0273 82.9423 11.0256 81.4631V35.2552V35.1549L10.9869 35.0623C10.9348 34.9377 10.908 34.804 10.9082 34.6689V34.6685V27.196C10.9099 25.7168 11.4982 24.2988 12.5442 23.2529C13.59 22.207 15.0081 21.6186 16.4872 21.6169C16.4873 21.6169 16.4874 21.6169 16.4876 21.6169L28.4706 21.6169H28.9706V21.1169V15.1237H31.0175V21.1169V21.6169H31.5175H73.2706H73.7706V21.1169V15.1237H75.8174V21.1169V21.6169H76.3174L88.3005 21.6169C88.3006 21.6169 88.3007 21.6169 88.3009 21.6169C89.78 21.6186 91.198 22.207 92.2439 23.2529C93.2899 24.2989 93.8782 25.717 93.8799 27.1963V59.6312ZM16.6039 84.9954H16.6045H62.4522H63.0147L62.9487 84.4368C62.5127 80.7436 62.9728 76.9997 64.29 73.5219C65.6073 70.0442 67.7429 66.935 70.5163 64.4574C73.2896 61.9798 76.619 60.2068 80.2226 59.2883C83.8263 58.3699 87.5981 58.3331 91.219 59.1811L91.833 59.3249V58.6943V36.1919V35.6919H91.333H13.5725H13.0725V36.1919L13.0725 81.4634L13.0725 81.464C13.0736 82.4002 13.446 83.2978 14.108 83.9598C14.77 84.6219 15.6676 84.9943 16.6039 84.9954ZM73.1417 88.132H79.5331V94.5234C79.5331 94.7492 79.6228 94.9659 79.7825 95.1256C79.9423 95.2853 80.1589 95.375 80.3847 95.375H91.496C91.7218 95.375 91.9384 95.2853 92.0981 95.1256C92.2578 94.9659 92.3475 94.7493 92.3475 94.5234V88.132H98.7392C98.965 88.132 99.1816 88.0423 99.3413 87.8826C99.501 87.7229 99.5907 87.5063 99.5907 87.2804V76.1691C99.5907 75.9433 99.501 75.7267 99.3413 75.567C99.1816 75.4073 98.965 75.3176 98.7392 75.3176H92.3475V68.9262C92.3475 68.7003 92.2578 68.4837 92.0981 68.324C91.9384 68.1643 91.7219 68.0746 91.496 68.0746H80.3847C80.1588 68.0746 79.9422 68.1643 79.7825 68.324C79.6228 68.4837 79.5331 68.7003 79.5331 68.9262V75.3176H73.1417C72.9159 75.3176 72.6993 75.4073 72.5396 75.567C72.3799 75.7267 72.2902 75.9433 72.2902 76.1691V87.2804V87.2814C72.2903 87.3426 72.2971 87.4035 72.3103 87.4631L72.3103 87.4632C72.3144 87.4815 72.3187 87.4964 72.3219 87.5065C72.3332 87.5481 72.3477 87.5889 72.3653 87.6285L72.3733 87.6466L72.381 87.6606C72.4035 87.7054 72.4295 87.7474 72.4578 87.7858L72.4606 87.7896C72.4947 87.835 72.5333 87.8769 72.5757 87.9147C72.7308 88.054 72.9317 88.1313 73.1402 88.132H73.1417Z" fill="#42A5B2" stroke="black"/>
</svg>
